<?xml version="1.0" encoding="utf-8"?>
<!-- Generator: Adobe Illustrator 22.0.1, SVG Export Plug-In . SVG Version: 6.00 Build 0)  -->
<svg version="1.1" id="Layer_1" xmlns="http://www.w3.org/2000/svg" xmlns:xlink="http://www.w3.org/1999/xlink" x="0px" y="0px"
	 viewBox="0 0 568.6 336.9" style="enable-background:new 0 0 568.6 336.9;" xml:space="preserve">
<style type="text/css">
	.st0{fill:#76777A;}
	.st1{opacity:0.35;fill:#76777A;enable-background:new    ;}
	.st2{opacity:0.75;fill:#76777A;enable-background:new    ;}
	.st3{fill:none;stroke:#999999;stroke-width:0.97;stroke-miterlimit:10;stroke-dasharray:2.9;}
	.st4{fill:#323E48;}
	.st5{fill:#009ADE;}
</style>
<title>seamless-integrations-asset</title>
<path class="st0" d="M19.4,106.7l-6.2,15.8h4.2l1.2-2.9h6l1.1,2.9H30l-6.2-15.8H19.4z M19.8,116l1.7-4.7l1.7,4.7L19.8,116z"/>
<rect x="30.9" y="106.7" class="st0" width="4.3" height="15.8"/>
<polygon class="st0" points="40.9,106.7 36.6,106.7 36.6,122.5 47.2,122.5 47.8,118.9 40.9,118.9 "/>
<polygon class="st0" points="69.6,112.4 63.9,112.4 63.9,106.7 46.4,106.7 45.7,110.3 50.8,110.3 48.6,122.5 52.9,122.5 55.1,110.3 
	59.6,110.3 59.6,122.5 63.9,122.5 63.9,116 69.6,116 69.6,122.5 73.9,122.5 73.9,106.7 69.6,106.7 "/>
<path class="st0" d="M9.3,113.2L6,112.5c-0.9-0.2-1.4-0.6-1.4-1.4c0-0.9,0.9-1.2,2.1-1.2c1.2-0.2,2.3,0.6,2.5,1.8c0,0,0,0.1,0,0.1
	h4.2c-0.4-3.6-2.7-5.3-6.7-5.3c-3.7,0-6.3,2-6.3,5.2c0,2.8,1.8,4,4.2,4.5l3.2,0.6c1.1,0.2,1.6,0.6,1.6,1.4c0,1-0.9,1.3-2.2,1.3
	c-1.3,0.1-2.4-0.7-2.7-2H0c0.6,3.6,3.3,5.4,7.2,5.4c3.6,0,6.5-1.8,6.5-5.2C13.6,115.2,12.1,113.8,9.3,113.2z"/>
<path class="st0" d="M90,112.2c0-3.6-2.4-5.5-6-5.5h-7.1v15.8h4.3v-5h1.2l3.4,5h4.8l-3.9-5.6C88.8,116.3,90.1,114.3,90,112.2z
	 M83.6,113.9h-2.4v-4.3h2.4c1.2-0.1,2.2,0.8,2.3,2s-0.8,2.2-2,2.3C83.8,113.9,83.7,113.9,83.6,113.9z"/>
<path class="st0" d="M102,106.7v9.1c0,2.4-1.1,3.5-2.9,3.5s-2.9-1.2-2.9-3.5v-9.1h-4.3v9.5c0,4.5,2.9,7,7.2,7s7.2-2.4,7.2-7v-9.6
	L102,106.7z"/>
<path class="st0" d="M54.7,215.9c-0.8,0-1.5,0.2-2.2,0.6v6.7c0.5,0,1,0.1,1.5,0.1c2.1,0,2.4-1,2.4-2.3v-3.2
	C56.5,216.8,56.2,216,54.7,215.9L54.7,215.9z M40.7,215.6c-1.5,0-1.8,0.8-1.8,1.8v0.6h3.6v-0.6C42.5,216.4,42.2,215.6,40.7,215.6
	L40.7,215.6z M13.6,222.5c-0.1,0.5,0.2,1.1,0.8,1.2c0.1,0,0.3,0,0.4,0c0.7,0,1.4-0.2,2-0.6v-1.6H15
	C14.1,221.5,13.7,221.7,13.6,222.5L13.6,222.5z M68.3,215.9c-1.5,0-2,0.8-2,1.8v3.6c0,1,0.5,1.8,2,1.8s2-0.8,2-1.8v-3.6
	C70.3,216.7,69.8,215.9,68.3,215.9L68.3,215.9z M6.4,226.6H2.2v-10.4H0v-3.6h2.2v-2.2c0-2.9,1.2-4.7,4.7-4.7h2.9v3.6H7.9
	c-1.3,0-1.4,0.5-1.4,1.4v1.8h3.2l-0.4,3.6H6.4V226.6L6.4,226.6z M21.1,226.6h-3.6l-0.2-0.9c-1.2,0.7-2.6,1.1-4.1,1.1
	c-2.6,0-4-1.8-4-4.2c0-2.9,1.6-3.9,4.6-3.9h3V218c0-1.5-0.2-1.9-2.4-1.9h-3.7l0.4-3.6h4c4.9,0,6,1.6,6,5.5L21.1,226.6L21.1,226.6z
	 M33.3,216.4c-1.3-0.3-2.6-0.4-3.9-0.5c-1.9,0-2.5,0.4-2.5,2.1v3.1c0,1.6,0.6,2.1,2.5,2.1c1.3,0,2.6-0.2,3.9-0.5v3.5
	c-1.4,0.3-2.9,0.5-4.3,0.6c-4.6,0-6.5-2.4-6.5-5.9v-2.5c0-3.5,1.8-6,6.5-6c1.5,0,2.9,0.2,4.3,0.6V216.4L33.3,216.4z M46.8,220.8H39
	v0.3c0,1.6,0.6,2.1,2.5,2.1c1.7,0,3.4-0.1,5-0.5v3.5c-1.8,0.4-3.6,0.6-5.4,0.6c-4.6,0-6.5-2.4-6.5-5.9v-2.9c0-3.1,1.4-5.6,6.1-5.6
	s6.1,2.5,6.1,5.6L46.8,220.8z M60.8,220.9c0,3.4-1,5.9-6.8,5.9c-1.9,0-3.8-0.2-5.7-0.5v-19.4l4.3-0.7v6.8c1-0.4,2.1-0.5,3.2-0.5
	c4.3,0,5,1.9,5,5L60.8,220.9L60.8,220.9z M74.6,220.9c0,2.9-1.2,5.8-6.3,5.8s-6.3-2.8-6.3-5.8v-2.8c0-2.9,1.2-5.8,6.3-5.8
	s6.3,2.8,6.3,5.8V220.9z M88.4,220.9c0,2.9-1.2,5.8-6.3,5.8s-6.3-2.8-6.3-5.8v-2.8c0-2.9,1.2-5.8,6.3-5.8s6.3,2.8,6.3,5.8V220.9z
	 M102.5,226.6h-4.7l-3.9-6.6v6.6h-4.3v-19.8l4.3-0.7v12.7l3.9-6.2h4.7l-4.3,6.8L102.5,226.6z M82.1,215.9c-1.5,0-2,0.8-2,1.8v3.6
	c0,1,0.5,1.8,2,1.8s2-0.8,2-1.8v-3.6C84.1,216.7,83.6,215.9,82.1,215.9z M105,224.1c0.7,0,1.3,0.6,1.3,1.3s-0.6,1.3-1.3,1.3
	c-0.7,0-1.3-0.6-1.3-1.3c0,0,0,0,0,0C103.6,224.7,104.2,224.1,105,224.1C104.9,224.1,104.9,224.1,105,224.1z M105,224.3
	c-0.6,0-1.1,0.5-1.1,1.1c0,0.6,0.5,1.1,1.1,1.1l0,0c0.6,0,1.1-0.5,1.1-1.1c0,0,0,0,0,0C106,224.8,105.6,224.3,105,224.3
	C105,224.3,105,224.3,105,224.3z M104.7,226.2h-0.2v-1.5c0.1,0,0.3,0,0.4,0c0.2,0,0.3,0,0.5,0.1c0.1,0.1,0.1,0.2,0.1,0.3
	c0,0.2-0.1,0.3-0.3,0.4l0,0c0.1,0,0.2,0.1,0.2,0.4c0,0.1,0,0.3,0.1,0.4h-0.2c-0.1-0.1-0.1-0.2-0.1-0.4c0-0.1-0.1-0.3-0.3-0.3
	c0,0,0,0,0,0h-0.2L104.7,226.2L104.7,226.2z M104.7,225.4h0.2c0.2,0,0.4-0.1,0.4-0.2s-0.1-0.3-0.4-0.3h-0.2V225.4L104.7,225.4z"/>
<polygon class="st1" points="78.7,316 78.7,322.7 85.4,322.7 85.4,329.4 92.1,329.4 92.1,316 "/>
<path class="st0" d="M102.5,326.6l2.9-2.3c0.7,1.4,2.1,2.2,3.6,2.2c1.2,0.1,2.4-0.8,2.5-2c0-0.1,0-0.1,0-0.2c0-1.4-1.7-1.8-3.5-2.4
	c-2.2-0.7-4.8-1.6-4.8-4.8c0-2.7,2.3-4.8,5.6-4.8c2.2-0.1,4.2,0.8,5.7,2.4l-2.6,2c-0.6-1-1.8-1.6-3-1.6c-1.5,0-2.3,0.8-2.3,1.9
	c0,1.3,1.6,1.7,3.4,2.3c2.3,0.7,4.8,1.7,4.8,5c0,2.7-2.1,5.2-5.8,5.2C106.6,329.7,104.1,328.6,102.5,326.6z M128.2,317.9h3.1v1.3
	c0.8-1,1.9-1.5,3.2-1.5c2.7,0,4.3,1.8,4.3,4.7v7h-3.2v-6.6c0-1.5-0.7-2.4-2.1-2.4c-1.2,0-2.2,0.8-2.2,2.8v6.3h-3.1V317.9z
	 M139.6,323.6c-0.2-3.1,2.1-5.8,5.2-6c0.1,0,0.3,0,0.4,0c1.3,0,2.5,0.4,3.4,1.4v-6.4h3.1v16.8h-3.1v-1.2c-0.9,1-2.1,1.5-3.5,1.5
	c-3.1-0.1-5.6-2.7-5.5-5.8C139.6,323.8,139.6,323.7,139.6,323.6L139.6,323.6z M148.7,323.6c0-1.7-1.3-3-2.9-3.1c0,0,0,0,0,0
	c-1.7-0.1-3.2,1.2-3.2,2.9c-0.1,1.7,1.2,3.2,2.9,3.2c1.7,0.1,3.2-1.2,3.2-2.9C148.7,323.7,148.7,323.7,148.7,323.6z M152.5,321
	c-0.1-4.7,3.6-8.5,8.2-8.6c0.1,0,0.2,0,0.3,0c2.2,0,4.4,0.8,6.1,2.3c0.6,0.6,1.1,1.3,1.5,2l-2.8,1.7c-0.9-1.8-2.8-3-4.8-2.9
	c-3,0.2-5.3,2.8-5.1,5.9c0.2,2.8,2.4,5,5.2,5.1c2.2,0.1,4.2-1.4,4.8-3.5h-5.3v-3h8.7v1.2c0.2,4.5-3.3,8.2-7.8,8.4
	c-0.1,0-0.3,0-0.4,0c-4.7,0.1-8.6-3.5-8.7-8.2C152.5,321.3,152.5,321.1,152.5,321L152.5,321z M170.2,317.9h3.1v1.9
	c0.6-1.2,1.8-2,3.2-1.9h1.3l-1.1,3.1h-0.9c-1.7,0-2.4,0.9-2.4,3v5.4h-3.1L170.2,317.9z M178.5,317.9h3.1v11.5h-3.1V321h-1.1
	L178.5,317.9z M180.1,316.2c1,0,1.9-0.8,1.9-1.9c0-1-0.8-1.9-1.9-1.9c-1,0-1.9,0.8-1.9,1.9c0,0,0,0,0,0
	C178.2,315.3,179.1,316.2,180.1,316.2C180.1,316.2,180.1,316.2,180.1,316.2L180.1,316.2z M182.4,323.7c-0.2-3.1,2.1-5.8,5.2-6
	c0.1,0,0.2,0,0.4,0c1.3,0,2.5,0.5,3.4,1.4v-6.4h3.1v16.8h-3.1v-1.3c-0.9,1-2.1,1.5-3.5,1.5c-3.1-0.1-5.6-2.7-5.5-5.8
	C182.4,323.7,182.4,323.7,182.4,323.7L182.4,323.7z M191.5,323.7c0-1.7-1.3-3-2.9-3.1c0,0,0,0,0,0c-1.7-0.1-3.2,1.2-3.2,2.9
	c-0.1,1.7,1.2,3.2,2.9,3.2c1.7,0.1,3.2-1.2,3.2-2.9C191.5,323.8,191.5,323.7,191.5,323.7z M127.5,323.7c0.1-3.2-2.4-5.8-5.6-5.9
	c-0.1,0-0.2,0-0.3,0c-3.3,0-6,2.7-6,6c0.1,3.4,2.9,6,6.3,5.9c2.1-0.1,4-1.2,5.1-3l-2.5-1.5c-0.5,1-1.6,1.7-2.8,1.6
	c-1.4,0.1-2.6-0.8-3-2.1h8.9L127.5,323.7z M118.8,322.2c0.5-1.1,1.6-1.8,2.8-1.8c1.2-0.1,2.3,0.7,2.7,1.8H118.8z"/>
<rect x="78.7" y="322.7" class="st0" width="6.7" height="6.7"/>
<polygon class="st2" points="92.1,316 92.1,309.3 85.4,309.3 85.4,316 85.4,322.7 92.1,322.7 98.8,322.7 98.8,316 "/>
<rect x="92.1" y="309.3" class="st0" width="6.7" height="6.7"/>
<polyline class="st3" points="206.8,14.7 206.8,176.3 233.9,176.3 "/>
<line class="st3" x1="116.7" y1="115.1" x2="205.5" y2="115.1"/>
<polyline class="st3" points="117.1,219.4 206.8,219.4 206.8,176.3 "/>
<line class="st3" x1="206.8" y1="219.4" x2="206.8" y2="323"/>
<circle class="st4" cx="233.9" cy="176.3" r="4.5"/>
<path class="st0" d="M66.9,11.4v2h4.9c-0.2,2.9-2.6,4.1-4.8,4.1c-2.9,0-5.3-2.4-5.4-5.3c0,0,0-0.1,0-0.1c0-3,2.3-5.4,5.3-5.4
	c0,0,0.1,0,0.1,0c1.4,0,2.7,0.5,3.7,1.5L72,6.7c-1.4-1.3-3.2-2-5.2-2c-4.1,0-7.4,3.3-7.5,7.4c0.1,4.1,3.5,7.5,7.6,7.5
	c3.6,0.2,6.8-2.5,7-6.1c0-0.2,0-0.4,0-0.6c0-0.5,0-0.9-0.1-1.4H66.9z M84.2,14.8c0,2.6-2,4.7-4.6,4.8c-0.1,0-0.1,0-0.2,0
	c-2.7,0-4.8-2.1-4.8-4.8s2.1-4.8,4.8-4.8c2.6,0,4.7,2,4.8,4.6C84.2,14.7,84.2,14.7,84.2,14.8z M82.1,14.8c0.1-1.5-1-2.8-2.5-3
	c-1.5-0.1-2.8,1-3,2.5c0,0.2,0,0.3,0,0.5c-0.1,1.5,1,2.8,2.5,3c1.5,0.1,2.8-1,3-2.5C82.1,15.1,82.1,14.9,82.1,14.8z M94.7,14.8
	c0,2.6-2,4.7-4.6,4.8c0,0-0.1,0-0.1,0c-2.7,0-4.8-2.1-4.8-4.8S87.3,10,90,10c2.6,0,4.7,2.1,4.8,4.6C94.7,14.7,94.7,14.7,94.7,14.8z
	 M92.6,14.8c0.1-1.5-1-2.8-2.5-3c-1.5-0.1-2.8,1-3,2.5c0,0.2,0,0.3,0,0.5c-0.1,1.5,1,2.8,2.5,3c1.5,0.1,2.8-1,3-2.5
	C92.6,15.1,92.6,14.9,92.6,14.8z M102.8,10.3h2v8.6c0,3.4-2,5-4.5,5c-1.9,0-3.6-1.1-4.3-2.8l1.8-0.8c0.4,1,1.4,1.7,2.4,1.7
	c1.3,0.1,2.5-0.9,2.5-2.3c0-0.1,0-0.2,0-0.4v-1c-0.6,0.8-1.6,1.2-2.6,1.2c-2.7,0-4.8-2.1-4.8-4.8c0-2.7,2.1-4.8,4.8-4.8l0,0
	c1,0,1.9,0.4,2.6,1.1L102.8,10.3z M102.9,14.8c0.1-1.5-1-2.8-2.5-2.9c0,0,0,0-0.1,0l0,0c-1.5,0-2.7,1.3-2.7,2.8c0,0,0,0.1,0,0.1
	c-0.1,1.5,1.1,2.8,2.6,2.9c0,0,0.1,0,0.1,0c1.5,0,2.7-1.3,2.6-2.7C103,14.9,103,14.8,102.9,14.8L102.9,14.8z M118.1,13.6l-6.4,2.6
	c0.4,0.9,1.3,1.5,2.3,1.5c1,0,1.9-0.5,2.3-1.3l1.7,1.1c-0.9,1.3-2.4,2.1-4,2.1c-2.6,0-4.7-2-4.7-4.6c0-0.1,0-0.2,0-0.2
	c-0.1-2.5,1.8-4.6,4.3-4.8c0.1,0,0.1,0,0.2,0l0,0c1.8,0,3.4,1.1,4,2.8L118.1,13.6z M115.6,12.8c-0.4-0.6-1-1-1.8-1
	c-1.5,0.1-2.6,1.3-2.5,2.8c0,0,0,0,0,0L115.6,12.8z M106.2,19.3h2.1V5.1h-2.1V19.3z M130.7,6.5l4.8,12.7h-1.8l-1.2-3.5h-5.4
	l-1.2,3.5H124l4.8-12.7L130.7,6.5z M131.9,14.3l-2.1-5.7h-0.1l-2.1,5.7H131.9z M143,6.5h1.6v12.7h-1.6V18H143
	c-0.3,0.5-0.7,0.8-1.2,1.1c-1.6,0.8-3.5,0.4-4.7-0.9c-0.8-0.9-1.2-2.1-1.2-3.3c0-1.2,0.4-2.4,1.2-3.3c1.2-1.3,3.1-1.7,4.7-0.9
	c0.5,0.2,0.9,0.6,1.2,1.1h0.1l-0.1-1.2L143,6.5z M143.1,14.9c0-0.8-0.3-1.6-0.8-2.2c-0.5-0.6-1.2-0.9-2-0.9c-0.8,0-1.5,0.3-2,0.9
	c-0.5,0.6-0.8,1.4-0.8,2.2c0,0.8,0.2,1.6,0.8,2.3c0.5,0.6,1.2,0.9,2,0.9c0.8,0,1.5-0.3,2-0.9C142.9,16.5,143.1,15.7,143.1,14.9
	L143.1,14.9z M160.1,6.5l-2.5,10h-0.1l-2.8-8.3h-1.5l-2.8,8.3h-0.1l-2.7-10H146l3.5,12.7h1.7l2.7-8.4h0.1l2.8,8.4h1.7l3.4-12.7
	H160.1z M169.3,11.5c0.9,0.9,1.3,2.1,1.3,3.3c0.1,1.3-0.4,2.5-1.3,3.4c-0.8,0.9-2,1.3-3.2,1.3c-1.2,0-2.4-0.4-3.2-1.3
	c-0.8-0.9-1.3-2.1-1.3-3.3c0-1.2,0.4-2.4,1.3-3.3c0.8-0.9,2-1.4,3.2-1.4C167.3,10.2,168.4,10.7,169.3,11.5L169.3,11.5z M168.9,14.8
	c0-0.8-0.3-1.6-0.8-2.2c-1-1.1-2.8-1.2-3.9-0.2c-0.1,0.1-0.1,0.1-0.2,0.2c-0.6,0.6-0.9,1.4-0.8,2.2c0,0.8,0.3,1.7,0.8,2.3
	c1.1,1.1,2.8,1.2,3.9,0.1c0,0,0.1-0.1,0.1-0.1C168.6,16.5,168.9,15.7,168.9,14.8L168.9,14.8z M174.5,10.7c-0.5,0.3-0.8,0.7-1,1.2
	h-0.1v-1.4h-1.6v8.7h1.6v-4.8c0-0.6,0.2-1.3,0.7-1.7c0.4-0.5,1-0.8,1.6-0.8c0.3,0,0.7,0,1,0.1l0.5-1.6c-0.4-0.2-0.8-0.2-1.2-0.2
	C175.5,10.2,175,10.4,174.5,10.7L174.5,10.7z M184.4,6.5h1.6v12.8h-1.6V18h-0.1c-0.3,0.5-0.7,0.8-1.2,1.1c-1.6,0.8-3.5,0.4-4.7-0.9
	c-0.8-0.9-1.2-2.1-1.2-3.3c0-1.2,0.4-2.4,1.2-3.3c1.2-1.3,3.1-1.7,4.7-0.9c0.5,0.2,0.9,0.6,1.2,1.1h0.1l-0.1-1.2V6.5z M184.5,14.8
	c0-0.8-0.3-1.6-0.8-2.2c-0.5-0.6-1.2-0.9-2-0.9c-0.8,0-1.5,0.3-2,0.9c-0.5,0.6-0.8,1.4-0.8,2.2c0,0.8,0.3,1.6,0.8,2.3
	c0.5,0.6,1.2,0.9,2,0.9c0.8,0,1.5-0.3,2-0.9C184.2,16.5,184.5,15.7,184.5,14.8L184.5,14.8z M192,14.2l-1.3-0.3
	c-0.9-0.2-1.4-0.6-1.4-1.1c0-0.3,0.2-0.6,0.5-0.8c0.3-0.2,0.7-0.3,1.1-0.3c0.4,0,0.9,0.1,1.2,0.3c0.4,0.2,0.6,0.5,0.8,0.9l1.5-0.6
	c-0.3-0.6-0.7-1.1-1.3-1.5c-0.6-0.4-1.4-0.6-2.1-0.6c-0.9,0-1.8,0.2-2.5,0.7c-0.6,0.4-1,1.1-1,1.9c0,1.2,0.9,2,2.5,2.5l1.5,0.4
	c0.9,0.3,1.3,0.7,1.3,1.2c0,0.3-0.2,0.6-0.5,0.8c-0.4,0.2-0.8,0.3-1.3,0.3c-0.5,0-1-0.1-1.4-0.4c-0.4-0.3-0.7-0.7-0.9-1.2l-1.5,0.6
	c0.3,0.7,0.8,1.4,1.4,1.8c0.7,0.5,1.5,0.7,2.3,0.7c0.9,0,1.8-0.2,2.5-0.8c0.6-0.4,1-1.2,1-1.9C194.6,15.5,193.7,14.6,192,14.2z"/>
<polyline class="st3" points="332.1,14.7 332.1,176.3 305.1,176.3 "/>
<line class="st3" x1="422.3" y1="115.1" x2="333.4" y2="115.1"/>
<polyline class="st3" points="421.9,219.4 332.1,219.4 332.1,176.3 "/>
<line class="st3" x1="332.1" y1="219.4" x2="332.1" y2="323"/>
<circle class="st4" cx="305.1" cy="176.3" r="4.5"/>
<path class="st0" d="M360.2,315.1c-0.1-0.1-0.2-0.2-0.3-0.2c-0.1,0-0.1,0-0.2,0.1c-0.8,0.6-1.8,3.1-2.6,6.4h0.7l4.5,0.1
	c-0.4-1.5-0.8-2.8-1.1-3.9C361,316.7,360.7,315.9,360.2,315.1z"/>
<path class="st0" d="M361.9,308.8c-7.8,0-14.1,6.3-14.1,14.1c0,7.8,6.3,14.1,14.1,14.1c7.8,0,14.1-6.3,14.1-14.1c0,0,0,0,0,0l0,0
	C376,315.1,369.7,308.8,361.9,308.8z M372,323.1L372,323.1L372,323.1L372,323.1c-0.2,0.1-0.3,0.1-0.4,0.1h-6.8
	c0.1,0.2,0.1,0.5,0.2,0.8c0.4,1.6,1.3,5.8,2.4,5.8h0c0.8,0,1.2-1.2,2.1-3.7l0,0c0.1-0.4,0.3-0.9,0.5-1.4v-0.1l0,0
	c0.1-0.2,0.2-0.3,0.4-0.2c0.2,0.1,0.3,0.2,0.2,0.4l0,0v0.1c-0.1,0.3-0.2,0.7-0.3,1.2c-0.5,2.2-1.3,5.6-3.4,5.6l0,0
	c-1.4,0-2.1-2.2-2.5-3.1c-0.6-1.7-1.1-3.5-1.6-5.3h-6.1l-1.3,4.1l0,0c-0.2,0.3-0.6,0.4-0.9,0.2c-0.2-0.1-0.3-0.3-0.3-0.6l0,0
	l0.1-0.5c0.2-1,0.4-2.1,0.6-3.2h-2.6c-0.5-0.1-0.9-0.7-0.7-1.2c0.1-0.3,0.3-0.6,0.7-0.7h0.4h2.6c1.4-5.5,2.9-8.3,4.6-8.3
	s3.2,4.3,4.4,8.4l0,0c2.3,0,4.7,0.1,7.1,0.3h0.2c0.4,0.1,0.7,0.5,0.6,0.9c0,0,0,0,0,0C372.2,322.8,372.1,322.9,372,323.1L372,323.1z
	"/>
<path class="st0" d="M383.8,326.4l-1.1,2.8h-3.2l6.2-14.4h2.9l6.1,14.4h-3.2l-1.1-2.7L383.8,326.4z M387,318.4l-2.1,5.2h4.3
	L387,318.4z"/>
<path class="st0" d="M413,323.6v5.5h-3v-5.3c0-1.6-0.8-2.5-2.2-2.5c-0.8,0-1.5,0.4-1.9,1.1c0,0.4,0.1,0.7,0.1,1.1v5.5h-2.9v-5.3
	c0-1.6-0.8-2.5-2.2-2.5c-0.7,0.1-1.4,0.5-1.8,1.1v6.6h-2.9V319h2.9v0.6c0.7-0.6,1.6-1,2.5-0.9c1.2,0,2.4,0.5,3.2,1.4
	c1-1,2.3-1.5,3.7-1.4C411,318.7,413,320.6,413,323.6z"/>
<path class="st0" d="M425.8,324.1c0.1,2.8-2.2,5.2-5,5.2c-1,0-2-0.3-2.9-0.8v5.5H415v-15h3v0.6c2.4-1.5,5.6-0.8,7.1,1.6
	C425.6,322,425.9,323,425.8,324.1L425.8,324.1z M422.9,324.1c0.1-1.5-1.1-2.7-2.6-2.8c0,0,0,0,0,0l0,0c-0.9,0-1.8,0.4-2.4,1.2v3.2
	c0.6,0.8,1.4,1.2,2.4,1.2C421.8,326.8,423,325.6,422.9,324.1C422.9,324.1,422.9,324.1,422.9,324.1L422.9,324.1L422.9,324.1z"/>
<path class="st0" d="M430.4,329.1h-2.9v-14.9h2.9L430.4,329.1L430.4,329.1z"/>
<path class="st0" d="M433,315.5c0-1,0.7-1.8,1.7-1.9c1,0,1.8,0.7,1.9,1.7c0,1-0.7,1.8-1.7,1.9c-0.1,0-0.1,0-0.2,0
	C433.7,317.1,433,316.4,433,315.5z M436.2,319v10.1h-2.9V319H436.2z"/>
<path class="st0" d="M446.9,329c-0.9,0.3-1.8,0.5-2.7,0.5c-2.4,0-4-1.7-4-4.3v-3.6H438V319h2.1v-3.6h2.9v3.6h3.6v2.5H443v3.6
	c-0.1,0.9,0.6,1.6,1.4,1.7c0.1,0,0.2,0,0.3,0c0.6,0,1.1-0.1,1.7-0.3L446.9,329z"/>
<path class="st0" d="M458.6,329.1h-2.9v-0.7c-0.8,0.7-1.8,1-2.9,1c-2.6,0-4.4-1.9-4.4-4.8V319h2.9v5.3c0,1.6,0.8,2.5,2.2,2.5
	c0.9-0.1,1.7-0.5,2.2-1.3V319h2.9L458.6,329.1L458.6,329.1z"/>
<path class="st0" d="M471.1,329.1h-2.9v-0.6c-2.5,1.5-5.7,0.7-7.2-1.8c-1.5-2.5-0.7-5.7,1.8-7.2c0.8-0.4,1.6-0.7,2.5-0.7
	c1,0,2,0.3,2.9,0.8v-5.4h2.9V329.1z M468.1,325.7v-3.2c-0.6-0.8-1.4-1.2-2.4-1.2c-1.5,0-2.8,1.2-2.8,2.8c0,1.5,1.2,2.8,2.8,2.8
	C466.7,326.9,467.6,326.4,468.1,325.7L468.1,325.7z"/>
<path class="st0" d="M483,324.8h-7.4c0.2,1.3,1.3,2.2,2.6,2.1c0.7,0.1,1.3-0.2,1.7-0.8h3.1c-0.7,2.1-2.7,3.4-4.8,3.3
	c-2.9,0.1-5.3-2.1-5.4-5c0-0.1,0-0.2,0-0.4c-0.1-2.8,2.1-5.2,4.9-5.4c0.2,0,0.3,0,0.5,0c2.7-0.1,4.9,2.1,5,4.8c0,0.1,0,0.3,0,0.4
	C483,324.2,483,324.5,483,324.8z M475.5,323.1h4.6c0-1.1-0.9-2-2-2c0,0-0.1,0-0.1,0C476.8,321,475.7,321.9,475.5,323.1z"/>
<path class="st0" d="M430.7,13.3c2.4-2.4,5-1.7,5,0.6s-2.7,4.7-6,6.6c-0.3,0.2-0.7,0.4-1.1,0.6c-0.1-0.6-0.2-1.3-0.2-1.9
	C428.5,17,429.3,14.9,430.7,13.3 M418,37.6c-3.2,3.2-7.2-0.9-2.5-5.6c1.4-1.3,3-2.4,4.6-3.3C421.2,31.3,420.4,35.3,418,37.6
	 M397.9,25c-2.4,0-4-2.9-3.5-6.5s2.8-6.5,5.3-6.5c2.2,0,3.8,2.5,3.6,5.7c-0.1,0.5-0.1,0.9-0.2,1.4C402.4,22.3,400.1,25,397.9,25
	 M365.8,23.8c-0.7,0.8-1.7,1.2-2.8,1.2c-0.9,0-1.8-0.4-2.4-1.1c-2.2-2.2-2-7.8,0.8-10.7c0.7-0.8,1.7-1.3,2.8-1.3
	c0.9,0,1.8,0.4,2.4,1.1C368.8,15.1,368.9,20.6,365.8,23.8 M441,24.9c0,0-0.9-1.3-1.2-1.6s-0.4-0.5-1-0.1c-1.4,1.1-3.1,1.7-4.8,1.8
	c-1.3,0.1-2.6-0.4-3.7-1.2c0.4-0.2,0.8-0.4,1.2-0.6c1.8-1,3.5-2.2,5-3.6c4.4-4.4,3-10.9-2.3-10.9c-5,0-9,4.9-9,10.3
	c0,1.1,0.2,2.2,0.4,3.2c-0.3,0.1-2.3,1.1-4.7,2.4c-2.2-1.7-5.7-0.9-5.7-0.9l0,0c3.2-4.6,8.1-11.8,8.5-12.4c0.3-0.4,0.2-0.9,0-1.5
	s-0.7-1-1.2-1h-10.2c-0.3,0-0.6,0.2-0.7,0.5c-0.1,0.4-0.3,1.7-0.3,2.1s0.4,0.7,0.8,0.7h7.3l-6.6,9.5c-0.1,0-0.1,0.1-0.1,0.1
	c-1,1.4-2.4,3.3-4.2,3.3c-1.1,0-2.5-0.8-2.5-3.4s1-7.9,1.8-12.1c0.1-0.4-0.1-0.9-0.8-0.9h-1.8c-0.4,0-0.7,0.3-0.7,0.6
	c-0.1,0.6-0.2,1.3-0.3,1.9c-0.8-1.7-2.5-2.7-4.4-2.7c-2,0-3.9,0.8-5.3,2.2c-3.8,3.8-3.1,10-6.4,13.3c-1.4,1.4-3,1-3-1.8
	c0-3.2,1.2-6.7,2.6-10.1c0.2-0.5,0.1-1.1-0.3-1.5c-0.4-0.5-0.5-0.8-1.2-0.8c-1,0-2.7,0.6-6,0.6c-0.7,0-1.4,0-2-0.1c0-0.5,0-0.8,0-1
	c0-0.5-0.1-0.8-0.6-0.8h-1.7c-0.6,0-0.8,0.3-0.8,0.8c-0.3,2-0.8,9.5-4.6,13.2c-0.2,0.2-0.4,0.4-0.7,0.6c0.9-1.9,1.4-4,1.4-6.1
	c0-5.3-3.1-8.6-7.1-8.6c-1.3,0-2.6,0.4-3.7,1.1c0.5-3.2,1.1-6.3,1.2-7.3c0.1-0.6,0-1.2-0.4-1.7c-0.4-0.6-0.7-0.8-1.2-0.8h-5.8
	c-0.3,0-0.6,0.3-0.7,0.6c-0.2,0.7-0.3,1.4-0.3,2.1c0,0.5,0.3,0.6,0.7,0.6h4.3c-0.7,4.2-2,12.3-2.4,14.3c-0.5,2.6-2.3,5.8-5.4,6.9
	c-0.4,0.1-0.5,0.5-0.4,0.8c0,0,0,0,0,0.1c0.2,0.7,0.5,1.3,0.8,1.9c0.2,0.3,0.5,0.5,0.9,0.4c1.6-0.6,3-1.5,4.2-2.6
	c0.3-0.3,0.6-0.6,0.8-1c1.4,3.1,4.2,4.3,7.1,4.3c3.5,0.1,6.8-1.3,9.3-3.6c2.9-2.9,4.1-7.7,4.6-11.1c0.8,0.1,1.5,0.2,2.3,0.2
	c1.2,0,2.5-0.1,3.7-0.4c0,0-2,5.3-2,9.3c0,4.4,2.1,5.7,4.5,5.7s4.1-1.8,5.3-4.1c0.3,0.8,0.8,1.5,1.4,2.2c1.1,1.2,2.8,1.9,4.4,1.9
	c2.3-0.1,4.4-1.3,5.5-3.3c0.2,0.8,0.6,1.5,1.1,2c1,0.8,2.3,1.3,3.6,1.2c2.7,0,4.3-2,8.6-2c0.5,0,1,0.1,1.5,0.2
	c-1.8,1-3.4,2.2-4.9,3.6c-3.5,3.5-3.7,8.1-1.4,10.4c2.8,2.8,6.8,1.4,9.2-1.1c2.9-2.9,3.8-8.4,2.1-12.2c2-1.1,3.7-1.9,4.1-2
	c1.3,1.7,3.4,3.1,6.8,3.1c2.5,0,4.9-0.8,6.9-2.4C441.1,25.7,441.2,25.3,441,24.9C441,25,441,25,441,24.9"/>
<path class="st0" d="M485.4,106.4c-1.8,0-3.4,0.9-4.4,2.4c-1-1.5-2.6-2.3-4.4-2.4c-2.9,0-5.2,2.4-5.2,5.2v6l0,0
	c0,0.5,0.4,0.9,0.9,0.9s0.9-0.4,0.9-0.9l0,0v-6.2c0-1.9,1.5-3.4,3.4-3.4c0.9,0,1.8,0.4,2.5,1.1c0.6,0.6,1,1.5,1,2.4v6l0,0v0.1
	c0,0.5,0.4,0.9,0.9,0.9s0.9-0.4,0.9-0.9l0,0v-6c0-1.9,1.6-3.5,3.5-3.5s3.5,1.6,3.5,3.5v6.1l0,0v0.1c0.1,0.4,0.4,0.7,0.9,0.7
	c0.5,0,0.8-0.4,0.9-0.8l0,0v-6c0.2-2.7-1.8-5.1-4.5-5.3C485.8,106.4,485.6,106.4,485.4,106.4z M472.9,118.4
	c-0.2,0.2-0.4,0.3-0.6,0.3c-0.2,0-0.4-0.1-0.6-0.3c-0.2-0.2-0.2-0.4-0.3-0.6l0,0c0,0.2,0.1,0.4,0.3,0.6c0.2,0.2,0.4,0.2,0.6,0.3
	C472.5,118.6,472.8,118.5,472.9,118.4c0.2-0.1,0.3-0.4,0.3-0.6l0,0C473.2,118,473.1,118.2,472.9,118.4L472.9,118.4z M473.1,117.7
	L473.1,117.7L473.1,117.7z M473.2,111.3c0-0.2,0.1-0.4,0.1-0.7C473.2,110.8,473.2,111.1,473.2,111.3L473.2,111.3z M473.6,110
	c0.1-0.2,0.2-0.4,0.4-0.5C473.8,109.6,473.7,109.8,473.6,110L473.6,110z M476.7,108.1c-0.7,0-1.4,0.2-2,0.6
	C475.3,108.4,476,108.2,476.7,108.1c0.7,0,1.4,0.2,2,0.6C478.1,108.4,477.4,108.2,476.7,108.1L476.7,108.1z M479.4,109.5
	c0.5,0.5,0.7,1.2,0.8,1.9C480.1,110.7,479.9,110,479.4,109.5L479.4,109.5z M481.6,118.4c-0.2,0.2-0.4,0.3-0.6,0.3
	c-0.2,0-0.4-0.1-0.6-0.3c-0.2-0.2-0.3-0.4-0.3-0.6l0,0c0,0.2,0.1,0.4,0.3,0.6c0.2,0.2,0.4,0.3,0.6,0.3
	C481.3,118.6,481.5,118.5,481.6,118.4c0.2-0.2,0.3-0.4,0.3-0.6l0,0C481.9,118,481.8,118.2,481.6,118.4L481.6,118.4z M481.9,111.7
	L481.9,111.7c0-0.2,0-0.5,0.1-0.7C481.9,111.2,481.9,111.4,481.9,111.7L481.9,111.7z M487.3,108.7c-1.2-0.8-2.7-0.8-3.9,0
	c-0.2,0.1-0.4,0.3-0.5,0.5c0.2-0.2,0.3-0.3,0.5-0.5c0.6-0.4,1.3-0.6,2-0.6C486.1,108.1,486.8,108.3,487.3,108.7
	c0.3,0.1,0.4,0.3,0.6,0.5C487.7,109,487.5,108.8,487.3,108.7L487.3,108.7z M488.9,111.7L488.9,111.7z M489,117.9L489,117.9
	L489,117.9L489,117.9c0,0.1,0,0.1,0.1,0.1S489,118,489,117.9L489,117.9z M490.3,118.4c-0.2,0.2-0.4,0.3-0.6,0.3
	c-0.3,0-0.5-0.1-0.7-0.3c0.2,0.2,0.4,0.3,0.7,0.3c0.5,0,0.8-0.4,0.9-0.8l0,0C490.6,118,490.5,118.2,490.3,118.4L490.3,118.4z"/>
<path class="st0" d="M546.2,108.1c1.2,0,2.4,0.5,3.3,1.4l0.1,0.1l0,0c0.2,0.1,0.4,0.2,0.6,0.2c0.5,0,0.8-0.4,0.8-0.9
	c0-0.2-0.1-0.5-0.3-0.7c0-0.1-0.1-0.1-0.1-0.1c-1.2-1.2-2.8-1.8-4.5-1.8c-3.4,0.1-6.1,3-5.9,6.4c0.1,3.2,2.7,5.8,5.9,5.9
	c1.7,0,3.4-0.7,4.5-2c0.1-0.1,0.2-0.3,0.3-0.5V116c0-0.4-0.3-0.8-0.7-0.8h-0.2c-0.3,0-0.5,0.1-0.7,0.3c-0.8,0.9-2,1.5-3.2,1.5
	c-2.4,0-4.4-1.9-4.5-4.4C541.8,110.1,543.8,108.1,546.2,108.1L546.2,108.1z M546.2,108c0.3,0,0.7,0.1,1,0.1
	C546.9,108.1,546.6,108,546.2,108z M550.8,109.5c-0.2,0.2-0.4,0.3-0.6,0.3c-0.2,0-0.4-0.1-0.5-0.2h-0.1l-0.1-0.1
	c-0.2-0.2-0.4-0.4-0.7-0.5c-0.4-0.3-0.8-0.5-1.2-0.7c0.4,0.1,0.8,0.4,1.2,0.7c0.2,0.2,0.4,0.3,0.7,0.5l0.1,0.1h0.1
	c0.1,0.1,0.3,0.2,0.5,0.2C550.5,109.7,550.7,109.7,550.8,109.5c0.2-0.2,0.3-0.4,0.3-0.6l0,0C551,109.1,551,109.3,550.8,109.5z
	 M546.3,118.6c-2.2,0-4.2-1.2-5.2-3.2c-0.5-0.9-0.7-1.9-0.7-2.9l0,0c0,1,0.2,2,0.7,2.9C542.1,117.4,544.1,118.6,546.3,118.6
	c0.8,0,1.7-0.1,2.4-0.5C548,118.5,547.1,118.6,546.3,118.6z M549.3,117.8c0.4-0.2,0.7-0.5,1-0.8C550,117.4,549.6,117.6,549.3,117.8z
	 M551,116.2V116l0,0V116.2z M542.3,110.8c-0.1,0.3-0.2,0.6-0.3,0.8c-0.1,0.3-0.1,0.6-0.1,0.9l0,0c0-0.3,0-0.6,0.1-0.9
	C542.1,111.3,542.2,111,542.3,110.8l0.4-0.8L542.3,110.8z"/>
<path class="st0" d="M499,106.4c-3,0-5.5,2.3-5.9,5.3c0,0-0.1,0.5-0.1,0.8v9.8l0,0v0.1c0,0.1,0.1,0.3,0.1,0.4
	c0.1,0.3,0.4,0.5,0.7,0.5h0.1c0.2,0,0.4-0.2,0.5-0.3l0.1-0.1l0,0c0.1-0.1,0.1-0.2,0.1-0.3v-9.9c0.1-2.3,2-4.1,4.3-4.1s4.1,2,4.1,4.3
	c-0.1,2.3-1.9,4.1-4.2,4.1c-0.2,0-0.6-0.1-0.8-0.1H498c-0.5,0-0.8,0.4-0.8,0.9c0,0.5,0.4,0.8,0.8,0.8h0.2c0.3,0.1,0.6,0.1,0.9,0.1
	c3.3,0,6-2.7,6-6C505,109.2,502.3,106.5,499,106.4z M493,122.3L493,122.3c0,0.1,0.1,0.3,0.1,0.4C493,122.6,493,122.4,493,122.3
	L493,122.3z M494,123.1h-0.2c-0.2,0-0.5-0.1-0.6-0.3c0.2,0.2,0.4,0.3,0.6,0.3H494c0,0,0.1,0,0.2-0.1
	C494.2,123.1,494.1,123.1,494,123.1L494,123.1z M494.7,122.2v0.2c0,0.1,0,0.2-0.1,0.3l0,0c0,0,0,0.1-0.1,0.1l0,0c0,0,0-0.1,0.1-0.1
	l0,0l0,0c0.1-0.1,0.1-0.2,0.1-0.3V122.2z M494.7,120.9L494.7,120.9z M494.7,115L494.7,115z M503,111.2c-0.1-0.3-0.2-0.5-0.3-0.8
	c-0.3-0.5-0.6-1-1-1.3c-0.8-0.6-1.7-1-2.7-1c-1.6,0-3,0.9-3.7,2.3c-0.2,0.4-0.3,0.8-0.4,1.2c0.1-0.4,0.2-0.8,0.4-1.2
	c1.1-2.1,3.6-2.9,5.7-1.8c0.8,0.4,1.4,1,1.8,1.8C502.8,110.7,502.9,110.9,503,111.2c0.1,0.4,0.2,0.9,0.2,1.3l0,0
	C503.2,112.1,503.1,111.6,503,111.2z M497.1,117.7c0.1,0.3,0.3,0.6,0.6,0.7C497.4,118.3,497.1,118,497.1,117.7L497.1,117.7z
	 M498.1,118.4L498.1,118.4c0.3,0.1,0.5,0.1,0.8,0.1C498.6,118.5,498.4,118.5,498.1,118.4L498.1,118.4z M502.6,117.1
	c-0.4,0.4-0.9,0.7-1.4,0.9c-0.4,0.1-0.7,0.3-1.1,0.3c0.4-0.1,0.8-0.2,1.1-0.3C501.7,117.8,502.2,117.5,502.6,117.1
	c0.5-0.4,0.8-0.8,1.1-1.3C503.5,116.3,503.1,116.7,502.6,117.1L502.6,117.1z M504.1,115.3c0.5-0.9,0.7-1.9,0.7-2.9l0,0
	C504.8,113.5,504.6,114.5,504.1,115.3L504.1,115.3z"/>
<path class="st0" d="M515.5,107.8c-1-0.9-2.4-1.4-3.8-1.3c-1.3,0-2.6,0.3-3.8,0.8l0,0c-0.3,0.1-0.6,0.4-0.6,0.8v0.2
	c0.1,0.4,0.4,0.7,0.9,0.7h0.2c0.1,0,0.1,0,0.1-0.1h0.1c0.9-0.5,2-0.7,3-0.7h0.1c2.2,0,3.3,1,3.3,2.9v3.6c0,0.6-0.2,1.1-0.6,1.5
	c-0.7,0.7-1.7,1-2.7,1h-0.1c-1.8,0-3.3-1.1-3.3-2.5c0-0.6,0.2-1.1,0.6-1.5c0.7-0.7,1.6-1,2.6-1c0.4,0,0.7,0.1,1.1,0.1h0.3
	c0.1,0,0.3-0.1,0.4-0.1c0.1-0.1,0.1-0.1,0.2-0.1c0.2-0.2,0.3-0.4,0.3-0.6l0,0v-0.1c0-0.1,0-0.1-0.1-0.1l0,0c0,0,0-0.1-0.1-0.1l0,0
	c-0.1-0.2-0.2-0.3-0.4-0.3c-0.1,0-0.1-0.1-0.2-0.1l0,0c-0.5-0.1-1-0.2-1.4-0.2c-2.8,0-5,1.9-5,4.3s2.3,4.2,5,4.2
	c2.6,0,4.7-1.6,5-3.5V111C516.7,109.8,516.3,108.7,515.5,107.8z M515,110.5c0-0.1-0.1-0.1-0.1-0.2S515,110.4,515,110.5L515,110.5z
	 M514.8,109.8c0-0.1-0.1-0.1-0.1-0.2S514.8,109.8,514.8,109.8z M514.6,109.3c-0.1,0-0.1-0.1-0.1-0.2
	C514.4,109.2,514.5,109.3,514.6,109.3z M513.1,108.3c-0.1,0-0.2-0.1-0.3-0.1C512.9,108.3,513,108.3,513.1,108.3L513.1,108.3z
	 M512.5,108.2L512.5,108.2z M507.4,108.1L507.4,108.1L507.4,108.1z M508.5,108.9c-0.1,0-0.1,0-0.1,0.1h-0.2c-0.2,0-0.4-0.1-0.5-0.2
	c0.1,0.1,0.3,0.2,0.5,0.2h0.2C508.4,108.9,508.5,108.9,508.5,108.9z M511.7,108.2c-0.5,0-1.1,0.1-1.6,0.2c-0.5,0.1-1,0.3-1.5,0.5
	c0.5-0.2,1-0.4,1.5-0.5C510.6,108.3,511.2,108.2,511.7,108.2z M514,108.8c0.1,0.1,0.1,0.1,0.2,0.1S514,108.8,514,108.8L514,108.8z
	 M513.4,108.4c0.1,0.1,0.2,0.1,0.3,0.1C513.6,108.5,513.5,108.5,513.4,108.4L513.4,108.4z M509.2,116.4L509.2,116.4L509.2,116.4z
	 M511.5,117.2L511.5,117.2z M511.2,117.2L511.2,117.2z M510.8,117.2L510.8,117.2z M510.5,117.1c-0.1,0-0.1,0-0.1-0.1
	S510.4,117.2,510.5,117.1L510.5,117.1z M510.2,117c-0.1,0-0.1,0-0.1-0.1S510.2,117.1,510.2,117L510.2,117z M509.9,116.9
	c-0.1,0-0.1-0.1-0.1-0.1S509.9,117,509.9,116.9L509.9,116.9z M509.6,116.8c-0.1,0-0.1-0.1-0.1-0.1S509.6,116.8,509.6,116.8
	L509.6,116.8z M509.4,116.6c-0.1,0-0.1-0.1-0.1-0.1C509.3,116.6,509.3,116.6,509.4,116.6L509.4,116.6z M508.3,114.8L508.3,114.8
	L508.3,114.8z M509,116.3L509,116.3L509,116.3z M508.8,116.1L508.8,116.1C508.7,116,508.8,116.1,508.8,116.1L508.8,116.1z
	 M508.7,115.8c0-0.1-0.1-0.1-0.1-0.1S508.6,115.9,508.7,115.8L508.7,115.8z M508.5,115.6C508.5,115.5,508.5,115.5,508.5,115.6
	L508.5,115.6z M508.4,115.3L508.4,115.3z M508.3,115.1L508.3,115.1z M508.4,114.2c0.2-0.5,0.5-1,0.9-1.3
	C508.9,113.2,508.5,113.7,508.4,114.2L508.4,114.2z M513.6,112.1c-0.1,0.1-0.1,0.1-0.2,0.1c-0.1,0.1-0.3,0.1-0.4,0.1h-0.2
	c-0.2-0.1-0.3-0.1-0.5-0.1c0.2,0,0.4,0,0.5,0.1h0.2c0.1,0,0.3-0.1,0.4-0.1S513.5,112.2,513.6,112.1c0.2-0.2,0.3-0.4,0.3-0.6
	C513.9,111.8,513.8,112,513.6,112.1L513.6,112.1z M516.6,115.4c-0.3,1.9-2.3,3.5-5,3.5c-2.7,0-5-1.9-5-4.2l0,0c0,2.3,2.2,4.2,5,4.2
	C514.2,118.9,516.4,117.3,516.6,115.4v-0.2l0,0V115.4z"/>
<path class="st0" d="M525,106.4h-0.3c-0.7,0.2-1.3,0.4-1.9,0.7c-0.6,0.3-1.1,0.6-1.6,1.1c-0.2,0.1-0.3,0.3-0.5,0.5
	c-1,0.8-1.6,2-1.6,3.3v5.7l0,0v0.1c0,0.5,0.4,0.9,0.8,0.9c0.5,0,0.9-0.4,0.9-0.9l0,0v-5.5c0-1,0.1-1.6,1.4-2.8
	c0.8-0.7,1.7-1.1,2.7-1.3l0,0c0.1,0,0.1-0.1,0.2-0.1c0.3-0.1,0.6-0.4,0.6-0.8c0.1-0.4-0.2-0.8-0.7-0.9
	C525,106.4,525,106.4,525,106.4z M520.6,118.4c-0.2,0.2-0.4,0.3-0.6,0.3c-0.2,0-0.4-0.1-0.6-0.3c-0.2-0.2-0.3-0.4-0.3-0.6l0,0
	c0,0.2,0.1,0.4,0.3,0.6c0.2,0.2,0.4,0.3,0.6,0.3C520.2,118.6,520.4,118.5,520.6,118.4c0.2-0.2,0.3-0.4,0.3-0.6l0,0
	C520.8,118,520.7,118.2,520.6,118.4L520.6,118.4z M520.8,117.8L520.8,117.8L520.8,117.8z M520.8,112.3L520.8,112.3
	c-0.1-0.8,0.2-1.6,0.8-2.2C521,110.7,520.7,111.5,520.8,112.3L520.8,112.3z M522.3,109.5c0.4-0.3,0.8-0.6,1.2-0.8
	C523.1,108.9,522.7,109.2,522.3,109.5L522.3,109.5z M525.6,107.8c0.1-0.1,0.1-0.3,0.1-0.5C525.7,107.5,525.7,107.6,525.6,107.8
	L525.6,107.8z"/>
<path class="st0" d="M555,103.8L555,103.8c0-0.2,0-0.3-0.1-0.4v-0.1l0,0c-0.1-0.1-0.1-0.2-0.2-0.2h-0.1c-0.1-0.1-0.3-0.1-0.4-0.1
	c-0.5,0-0.8,0.4-0.8,0.8l0,0v13.9l0,0c0,0.4,0.3,0.8,0.7,0.9c0.2,0,0.3,0,0.5-0.1l0,0l0.2-0.2v0l0,0c0.1-0.1,0.1-0.3,0.1-0.4l0,0
	V104C555,103.9,555,103.9,555,103.8z M554.8,118.2L554.8,118.2c-0.1,0.1-0.1,0.2-0.3,0.3h-0.1c-0.1,0-0.1,0.1-0.2,0.1h-0.2
	c-0.2,0-0.4-0.1-0.6-0.3c-0.2-0.2-0.3-0.4-0.3-0.6l0,0c0,0.2,0.1,0.4,0.3,0.6c0.2,0.2,0.4,0.3,0.6,0.3h0.2c0.1,0,0.1-0.1,0.2-0.1
	h0.1C554.7,118.4,554.8,118.3,554.8,118.2z M555,118v-0.2l0,0V118z M555,117.8L555,117.8L555,117.8z"/>
<path class="st0" d="M533,108.3h0.3c0.2-0.1,0.4-0.2,0.5-0.5l0,0v-0.1l0,0v-0.1l0,0v-0.1c0-0.5-0.4-0.8-0.8-0.8h-3.2v-2.7l0,0
	c0-0.3-0.1-0.5-0.3-0.7c-0.1-0.1-0.3-0.2-0.5-0.2c-0.5,0-0.8,0.4-0.8,0.8v0.1l0,0v11.3c-0.1,1.8,1.2,3.3,3,3.5c0.2,0,0.3,0,0.5,0
	c0.6,0,1.2-0.1,1.7-0.3h0.1c0.4-0.2,0.6-0.7,0.5-1.1c-0.1-0.2-0.3-0.4-0.5-0.5c-0.1-0.1-0.2-0.1-0.3-0.1c-0.1,0-0.2,0-0.3,0.1h-0.1
	c-0.1,0-0.1,0.1-0.1,0.1c-0.2,0.1-0.5,0.1-0.7,0.1c-0.5,0.1-1.1-0.1-1.5-0.5c-0.3-0.4-0.4-0.9-0.4-1.4v-6.9H533z M533.4,108.2
	L533.4,108.2c0.1-0.1,0.3-0.2,0.4-0.3C533.6,108.1,533.5,108.1,533.4,108.2L533.4,108.2z M533.9,107.6v-0.1l0,0V107.6z M528.1,115.2
	L528.1,115.2c0,0.2,0,0.5,0.1,0.7C528.1,115.7,528.1,115.4,528.1,115.2z M528.2,116.3c0.1,0.4,0.3,0.8,0.6,1.2
	C528.6,117.1,528.4,116.7,528.2,116.3L528.2,116.3z M533.4,118.3L533.4,118.3c-0.6,0.3-1.2,0.4-1.8,0.4c-0.7,0-1.4-0.2-2-0.5
	c-0.2-0.1-0.3-0.3-0.5-0.4c0.2,0.1,0.3,0.3,0.5,0.4c0.6,0.3,1.3,0.5,2,0.5C532.2,118.7,532.7,118.6,533.4,118.3
	C533.3,118.3,533.3,118.3,533.4,118.3c0.2-0.1,0.4-0.3,0.5-0.5c-0.1,0.2-0.3,0.3-0.5,0.4V118.3z"/>
<circle class="st0" cx="536.9" cy="103.8" r="1"/>
<path class="st0" d="M536.9,106.5c-0.5,0-0.8,0.4-0.8,0.8l0,0v10.4c0,0.5,0.4,0.9,0.9,0.9c0.5,0,0.8-0.4,0.8-0.9v-0.1l0,0v-10.5
	C537.7,106.8,537.3,106.5,536.9,106.5z M536.1,117.6L536.1,117.6L536.1,117.6z M537.5,118.4c-0.2,0.2-0.4,0.3-0.6,0.3
	c-0.2,0-0.4-0.1-0.6-0.3c-0.1-0.2-0.2-0.4-0.3-0.6l0,0c0,0.2,0.1,0.4,0.3,0.6c0.2,0.1,0.4,0.2,0.6,0.3
	C537.1,118.6,537.3,118.5,537.5,118.4c0.2-0.2,0.3-0.4,0.3-0.6l0,0C537.7,118,537.6,118.2,537.5,118.4L537.5,118.4z M537.7,117.5
	L537.7,117.5z"/>
<path class="st0" d="M563.1,106.3c-3.2,0-5.6,2.8-5.6,6.2c-0.2,3.2,2.3,6,5.5,6.1c0.1,0,0.2,0,0.3,0c1.7,0.1,3.4-0.6,4.6-1.9v-0.1
	l0,0c0.2-0.1,0.3-0.4,0.3-0.6c0-0.5-0.4-0.8-0.8-0.8c-0.1,0-0.3,0-0.4,0.1l0,0c0,0-0.1,0-0.1,0.1c-0.1,0.1-0.1,0.1-0.2,0.1
	c-0.8,0.9-2,1.4-3.3,1.4c-2.1,0-3.8-1.5-4.1-3.5c0-0.3-0.1-0.7-0.1-1c0-0.3,0-0.6,0.1-0.9c0.2-1.3,1.1-2.5,2.3-3.1
	c0.1,0,0.2-0.1,0.3-0.1c0.4-0.1,0.8-0.2,1.2-0.3c1-0.1,1.9,0.3,2.5,1c0.4,0.4,0.8,0.9,1,1.5c0.1,0.3,0.2,0.7,0.3,1h-5.1
	c-0.5,0-0.8,0.4-0.8,0.8c0,0.1,0,0.2,0.1,0.3v0.1l0,0v0.1c0.2,0.2,0.4,0.4,0.7,0.4h5.9c0.1,0,0.3,0,0.4-0.1h0.1c0,0,0.1,0,0.1-0.1
	c0,0,0,0,0,0c0,0,0.1,0,0.1-0.1v0l0,0l0.1-0.1l0,0c0.1-0.2,0.2-0.4,0.3-0.6C568.6,108.9,566.3,106.3,563.1,106.3z M566.9,111.6
	L566.9,111.6z M557.6,112.5L557.6,112.5c0,1.2,0.3,2.4,1,3.5C557.9,115,557.6,113.8,557.6,112.5z M563.3,118.6
	c-1.7,0-3.4-0.8-4.5-2.2C559.9,117.9,561.6,118.7,563.3,118.6c1.3,0,2.5-0.3,3.5-1C565.8,118.3,564.6,118.7,563.3,118.6z
	 M568.1,116.4c0.1-0.1,0.1-0.2,0.1-0.3l0,0C568.2,116.2,568.1,116.3,568.1,116.4z M560.8,108.9c-0.8,0.7-1.4,1.6-1.6,2.7
	c0,0.2-0.1,0.4-0.1,0.7c0-0.2,0-0.4,0.1-0.7C559.5,110.5,560,109.6,560.8,108.9c0.2-0.2,0.5-0.4,0.8-0.5
	C561.3,108.5,561,108.7,560.8,108.9z M565.2,108.6c-0.4-0.3-0.8-0.4-1.3-0.5C564.3,108.2,564.8,108.3,565.2,108.6
	c0.2,0.1,0.3,0.2,0.5,0.4C565.5,108.8,565.3,108.7,565.2,108.6z M566.6,110.6c-0.1-0.1-0.1-0.3-0.2-0.5c-0.1-0.3-0.3-0.6-0.5-0.8
	c0.2,0.2,0.4,0.5,0.5,0.8C566.5,110.3,566.6,110.4,566.6,110.6c0.1,0.2,0.2,0.5,0.2,0.7C566.8,111.1,566.7,110.8,566.6,110.6
	L566.6,110.6z M561,112.4L561,112.4L561,112.4z M568.3,113.1C568.3,113.1,568.2,113.1,568.3,113.1c0,0-0.1,0.1-0.1,0.1h-0.1
	c-0.1,0.1-0.3,0.1-0.4,0.1l0,0c0.1,0,0.3,0,0.4-0.1h0.1C568.2,113.1,568.3,113.1,568.3,113.1C568.2,113.1,568.3,113.1,568.3,113.1
	L568.3,113.1C568.3,113.1,568.2,113.1,568.3,113.1L568.3,113.1z M568.6,112.6v-0.2l0,0V112.6z"/>
<path class="st0" d="M454.6,112.7L454.6,112.7l-2.6-2.8c-0.3-0.3-0.7-0.5-1.2-0.5l0,0c-0.4,0-0.9,0.2-1.2,0.5l-4,4.2l-4-4.2
	c-0.3-0.3-0.7-0.5-1.2-0.5c-0.4,0-0.9,0.2-1.2,0.5l-5.4,5.4c-0.7,0.7-0.7,1.7,0,2.4c0.3,0.3,0.7,0.5,1.2,0.5c0.4,0,0.9-0.2,1.2-0.5
	l4.2-4.2l4,4.2c0.6,0.7,1.6,0.7,2.3,0.1c0,0,0.1-0.1,0.1-0.1l4-4.2l1.6,1.6l0,0l0.1,0.1c0.6,0.6,1.7,0.7,2.3,0c0,0,0,0,0,0
	C455.3,114.4,455.3,113.3,454.6,112.7L454.6,112.7z"/>
<path class="st0" d="M463.8,110.1l-5.3-5.3c-0.6-0.6-1.7-0.6-2.4,0c-0.6,0.6-0.6,1.7,0,2.3l0,0l4.1,4.1l-3,2.9l-1.2,1.2
	c-0.6,0.6-0.7,1.7,0,2.3c0,0,0,0,0,0c0.3,0.3,0.6,0.5,1,0.5h0.2c0.4,0,0.9-0.2,1.2-0.5l5.4-5.4c0.3-0.3,0.5-0.7,0.5-1.2
	C464.3,110.8,464.1,110.4,463.8,110.1z"/>
<circle class="st0" cx="438.7" cy="234.7" r="5"/>
<circle class="st0" cx="456.8" cy="234.8" r="3.6"/>
<circle class="st0" cx="471.8" cy="234.8" r="1.6"/>
<path class="st0" d="M455.9,224.2c-0.8,0-1.5-0.7-1.5-1.5c0,0,0,0,0-0.1v-6.6c0-2.3-1.1-4-3.5-4c-2.1,0-3.9,1.6-3.9,3.8
	c0,0.1,0,0.2,0,0.2v6.5c0,0.8-0.6,1.5-1.4,1.5c0,0-0.1,0-0.1,0c-0.8,0-1.5-0.6-1.5-1.5c0,0,0-0.1,0-0.1v-6.6c0-2.3-1.2-4-3.6-4
	c-2.1-0.1-3.8,1.6-3.8,3.6c0,0.1,0,0.3,0,0.4v6.5c0,0.8-0.6,1.5-1.4,1.5c0,0-0.1,0-0.1,0c-0.8,0-1.5-0.7-1.5-1.5c0,0,0,0,0,0V211
	c-0.1-0.8,0.6-1.5,1.4-1.6c0.1,0,0.1,0,0.2,0c0.8-0.1,1.5,0.6,1.5,1.4c0,0.1,0,0.1,0,0.2v1c0.9-1.7,2.7-2.8,4.6-2.8
	c2.1-0.1,4,1.1,5,2.9c1.2-1.9,3.3-3,5.5-2.9c4,0,5.9,2.7,5.9,6.6v6.8C457.4,223.4,456.8,224.1,455.9,224.2
	C455.9,224.1,455.9,224.1,455.9,224.2L455.9,224.2z M461.7,203.6c1,0,1.8,0.8,1.8,1.8s-0.8,1.8-1.8,1.8c-1,0-1.8-0.8-1.8-1.8
	c0,0,0,0,0,0C459.9,204.4,460.7,203.6,461.7,203.6L461.7,203.6z M461.7,224.2c-0.8,0-1.5-0.6-1.5-1.5c0,0,0-0.1,0-0.1V211
	c0.1-0.9,0.8-1.5,1.7-1.4c0.8,0.1,1.4,0.7,1.4,1.4v11.7C463.3,223.5,462.7,224.2,461.7,224.2C461.8,224.2,461.8,224.2,461.7,224.2
	L461.7,224.2z M472,214.7l3.9-4.9c0.2-0.3,0.6-0.5,1-0.5c0.7-0.1,1.4,0.5,1.4,1.2c0,0.4-0.1,0.7-0.4,1l-4.3,5.1l4.4,5.1
	c0.2,0.2,0.4,0.6,0.4,0.9c0,0.8-0.6,1.4-1.4,1.4c-0.4,0-0.8-0.2-1.1-0.5l-3.9-4.9l-3.9,4.9c-0.3,0.3-0.7,0.5-1.1,0.5
	c-0.7,0-1.4-0.6-1.4-1.3c0-0.3,0.1-0.7,0.4-0.9l4.4-5.1l-4.3-5.1c-0.2-0.2-0.4-0.6-0.4-0.9c0-0.7,0.6-1.3,1.3-1.3c0,0,0.1,0,0.1,0
	c0.4,0,0.8,0.2,1,0.5L472,214.7L472,214.7z M488.8,224.3c-2.1,0-4-1.1-5-2.8v7.3c0,0.9-0.7,1.5-1.5,1.5c-0.9,0-1.5-0.7-1.5-1.5
	c0,0,0,0,0,0V211c-0.1-0.8,0.5-1.5,1.3-1.5c0.1,0,0.1,0,0.2,0c0.8,0,1.5,0.6,1.5,1.4c0,0,0,0.1,0,0.1v1.1c1.1-1.8,3-2.9,5.1-2.8
	c3.8,0,6.9,3.1,6.9,7.5C495.6,221.3,492.6,224.3,488.8,224.3L488.8,224.3z M488.2,211.9c-2.7,0-4.4,2.3-4.4,5s1.8,4.9,4.4,4.9
	s4.4-2,4.4-4.9S490.8,211.9,488.2,211.9L488.2,211.9z M512,222.6c0.1,0.8-0.6,1.6-1.4,1.6c-0.8,0.1-1.6-0.6-1.6-1.4
	c0-0.1,0-0.2,0-0.2v-0.7c-1.1,1.5-2.9,2.4-4.8,2.4c-4.6,0-7.2-3.4-7.2-7.5c-0.1-4,3.1-7.4,7.1-7.5c0.2,0,0.3,0,0.5,0
	c4.7,0,7.5,3.1,7.5,7.5V222.6z M504.4,211.9c-2.5,0.1-4.5,2.2-4.5,4.7c0,0.1,0,0.1,0,0.2c0,2.8,1.5,4.9,4.5,4.9
	c2.5-0.1,4.5-2.2,4.5-4.7c0,0,0-0.1,0-0.1C508.9,213.8,507,211.9,504.4,211.9z M521.2,209.3c3.7-0.1,6.8,2.9,6.9,6.6
	c0,0.1,0,0.2,0,0.3v6.5c0,0.8-0.7,1.5-1.5,1.5c0,0,0,0,0,0l0,0c-0.8,0-1.5-0.7-1.5-1.5c0,0,0,0,0,0l0,0v-6.9c-0.1-2.1-1.9-3.7-4-3.6
	c-1.9,0.1-3.5,1.7-3.6,3.6v6.9c0,0.9-0.7,1.5-1.5,1.5l0,0c-0.9,0-1.5-0.7-1.5-1.5c0,0,0,0,0,0l0,0v-6.5c-0.1-3.7,2.8-6.8,6.5-6.9
	C521,209.3,521.1,209.3,521.2,209.3L521.2,209.3z M544.2,216.8c0,0.5-0.3,1.1-1.2,1.1h-9.8c0.1,2.3,1.9,4.1,4.2,4c0.1,0,0.1,0,0.2,0
	c1.4,0,2.8-0.6,3.8-1.6c0.3-0.3,0.6-0.5,1-0.5c0.7,0,1.3,0.5,1.3,1.2c0,0,0,0.1,0,0.1c0,0.3-0.2,0.6-0.4,0.9
	c-1.5,1.6-3.6,2.4-5.8,2.4c-4.9,0-7.5-3.4-7.5-7.5c-0.2-4,3-7.4,6.9-7.5c0.1,0,0.3,0,0.4,0C541.5,209.3,544.1,212.7,544.2,216.8
	L544.2,216.8z M537.3,211.8c-2.1,0-3.9,1.5-4.1,3.6h8.1C541.1,213.3,539.4,211.8,537.3,211.8L537.3,211.8z M547.7,224.2
	c-0.8,0-1.5-0.6-1.5-1.4c0,0,0-0.1,0-0.1v-19.3c0-0.9,0.7-1.5,1.5-1.5c0.9,0,1.5,0.7,1.5,1.5v19.3c0,0.8-0.6,1.5-1.4,1.5
	C547.8,224.2,547.7,224.2,547.7,224.2L547.7,224.2z"/>
<g id="Circle_logo_dk">
	<path class="st4" d="M296.9,176.3c0-15.1-12.2-27.3-27.4-27.3s-27.3,12.2-27.3,27.4c0,14.2,10.8,26,24.9,27.2h0.1h0.7h0.1
		c0.2,0,0.4,0,0.6,0h1.8h0.6l0,0c0.5,0,1-0.1,1.4-0.1l0,0C286.3,201.9,296.8,190.2,296.9,176.3z M272.4,200.9l-0.3-7.6l6.6-4.1
		c2.3,1.5,5.4,0.9,6.9-1.3c0.6-0.9,0.9-1.9,0.9-2.9c-0.1-2.6-2.2-4.8-4.8-4.8c-2.8-0.1-5.1,2.1-5.1,4.9c0,0,0,0.1,0,0.1
		c0,0.3,0,0.5,0.1,0.8l-4.7,2.9l-0.3-9.5l6.5-4c2.6,1.9,6.3,1.4,8.2-1.2c1.9-2.6,1.4-6.3-1.2-8.2c-2.6-1.9-6.3-1.4-8.2,1.2
		c-1.1,1.4-1.4,3.2-1,4.9l-4.5,2.8l-0.3-7.6c2.1-0.8,3.5-2.9,3.4-5.2c-0.2-2.8-2.4-5-5.2-5.1c-2.9-0.1-5.4,2.1-5.6,5.1
		c-0.1,2.3,1.3,4.4,3.5,5.2l-0.5,15.7l-4.9-3.1c0.3-1.3,0.2-2.7-0.4-3.9c-0.9-2-2.9-3.4-5.2-3.6c-3.4-0.2-6.3,2.4-6.6,5.8
		c-0.2,3.4,2.4,6.3,5.8,6.6c1.6,0.1,3.1-0.4,4.3-1.4l6.8,4.3l-0.4,13.4c-13.6-1.7-23.2-14-21.6-27.6c1.7-13.6,14-23.2,27.6-21.6
		s23.2,14,21.6,27.6C292.6,190.5,283.7,199.5,272.4,200.9L272.4,200.9z"/>
	<path class="st5" d="M269.4,159c-1.8,0-3.2,1.5-3.2,3.2s1.5,3.2,3.2,3.2c1.8,0,3.2-1.5,3.2-3.2C272.6,160.4,271.1,159,269.4,159
		C269.4,159,269.4,159,269.4,159z"/>
	<path class="st5" d="M281.5,182.3c-1.6,0-2.9,1.3-2.9,2.9c0,1.6,1.3,2.9,2.9,2.9c1.6,0,2.9-1.3,2.9-2.9c0,0,0,0,0,0
		C284.5,183.6,283.2,182.3,281.5,182.3C281.5,182.3,281.5,182.3,281.5,182.3z"/>
	<path class="st5" d="M283.3,173.8c1.7-0.8,2.4-2.9,1.6-4.6s-2.9-2.4-4.6-1.6c-1.7,0.8-2.4,2.9-1.6,4.6
		C279.6,173.9,281.6,174.6,283.3,173.8C283.3,173.8,283.3,173.8,283.3,173.8z"/>
	<path class="st5" d="M256.1,174.7c-2.1,0-3.7,1.7-3.7,3.7c0,2.1,1.7,3.7,3.7,3.7c2.1,0,3.7-1.7,3.7-3.7c0,0,0,0,0,0
		C259.8,176.4,258.1,174.7,256.1,174.7z"/>
</g>
</svg>
